<svg width="32" height="32" viewBox="0 0 32 32" fill="none" xmlns="http://www.w3.org/2000/svg">
<path fill-rule="evenodd" clip-rule="evenodd" d="M10.5285 3.55556C10.0397 3.55556 9.57098 3.74286 9.22539 4.07625C8.87979 4.40965 8.68564 4.86184 8.68564 5.33333V27.0823L15.1088 23.3645C15.6924 23.0267 16.4214 23.0267 17.005 23.3645L23.4282 27.0823V5.33333C23.4282 4.86184 23.234 4.40965 22.8884 4.07625C22.5428 3.74286 22.0741 3.55556 21.5854 3.55556H10.5285ZM6.61925 1.5621C7.65603 0.561903 9.06222 0 10.5285 0H21.5854C23.0516 0 24.4578 0.561903 25.4946 1.5621C26.5314 2.56229 27.1138 3.91884 27.1138 5.33333V30.2222C27.1138 30.8627 26.7567 31.4537 26.179 31.7692C25.6012 32.0848 24.8922 32.0762 24.3229 31.7467L16.5782 27.2639C16.2557 27.0772 15.8581 27.0772 15.5356 27.2639L7.79094 31.7467C7.22164 32.0762 6.5126 32.0848 5.93486 31.7692C5.35712 31.4537 5 30.8627 5 30.2222V5.33333C5 3.91885 5.58246 2.56229 6.61925 1.5621Z" fill="#007AFF"/>
<path d="M7.78411 3L6.98865 8.5L7.78411 29.3333L17.1706 25.1667L24.9661 29.3333V4.5L23.3752 2.33333L10.6478 1.83333L7.78411 3Z" fill="#007AFF"/>
<path fill-rule="evenodd" clip-rule="evenodd" d="M13.1473 7.00984C13.1954 6.79033 13.3873 6.63416 13.609 6.63416H18.3392C18.4913 6.63416 18.6341 6.70829 18.723 6.8334C18.8119 6.9585 18.8361 7.11933 18.788 7.26563L17.1034 12.3913H21.1774C21.3518 12.3913 21.5121 12.4887 21.5944 12.6447C21.6768 12.8008 21.6677 12.9901 21.5709 13.1373L15.8946 21.7701C15.779 21.946 15.5635 22.0244 15.364 21.9631C15.1645 21.9018 15.0281 21.7154 15.0281 21.5039V16.2294H11.7169C11.5734 16.2294 11.4377 16.1634 11.3479 16.0499C11.2582 15.9364 11.224 15.7876 11.2552 15.6456L13.1473 7.00984ZM13.9885 7.59368L12.3066 15.2699H15.5011C15.7623 15.2699 15.9741 15.4847 15.9741 15.7497V19.9198L20.2934 13.3508H16.4472C16.2951 13.3508 16.1523 13.2767 16.0634 13.1516C15.9745 13.0265 15.9503 12.8657 15.9984 12.7194L17.683 7.59368H13.9885Z" fill="white"/>
<path d="M15.5011 15.7497H11.7169L13.609 7.11392H18.3392L16.4472 12.8711H21.1774L15.5011 21.5068V15.7497Z" fill="white"/>
</svg>
