<svg width="180" height="180" viewBox="0 0 180 180" fill="none" xmlns="http://www.w3.org/2000/svg">
<rect width="180" height="180" rx="24" fill="#007AFF"/>
<path fill-rule="evenodd" clip-rule="evenodd" d="M69.25 42.1667C67.3714 42.1667 65.5697 42.8866 64.2413 44.1681C62.9129 45.4496 62.1667 47.1877 62.1667 49V132.598L86.8557 118.307C89.0988 117.009 91.9012 117.009 94.1443 118.307L118.833 132.598V49C118.833 47.1877 118.087 45.4496 116.759 44.1681C115.43 42.8866 113.629 42.1667 111.75 42.1667H69.25ZM54.224 34.5043C58.2091 30.6598 63.6142 28.5 69.25 28.5H111.75C117.386 28.5 122.791 30.6598 126.776 34.5043C130.761 38.3488 133 43.5631 133 49V144.667C133 147.129 131.627 149.4 129.407 150.613C127.186 151.826 124.461 151.793 122.272 150.526L92.5038 133.296C91.2643 132.578 89.7357 132.578 88.4962 133.296L58.7277 150.526C56.5394 151.793 53.8141 151.826 51.5934 150.613C49.3727 149.4 48 147.129 48 144.667V49C48 43.5631 50.2388 38.3488 54.224 34.5043Z" fill="white"/>
<path d="M58.7014 40.0312L55.6439 61.1719L58.7014 141.25L94.7806 125.234L124.745 141.25V45.7969L118.63 37.4688L69.7086 35.5469L58.7014 40.0312Z" fill="white"/>
<path fill-rule="evenodd" clip-rule="evenodd" d="M79.316 55.4441C79.5009 54.6003 80.2387 54 81.0909 54H99.2727C99.8572 54 100.406 54.285 100.748 54.7658C101.089 55.2467 101.182 55.8649 100.998 56.4272L94.5226 76.1291H110.182C110.852 76.1291 111.469 76.5035 111.785 77.1032C112.101 77.7029 112.067 78.4305 111.694 78.9963L89.8763 112.179C89.4318 112.855 88.6034 113.156 87.8366 112.921C87.0699 112.685 86.5455 111.968 86.5455 111.156V90.8818H73.8182C73.2667 90.8818 72.745 90.6279 72.3999 90.1916C72.0549 89.7553 71.9237 89.1837 72.0433 88.6377L79.316 55.4441ZM82.5494 57.6882L76.0848 87.1936H88.3636C89.3678 87.1936 90.1818 88.0193 90.1818 89.0377V105.067L106.784 79.8173H92C91.4156 79.8173 90.8668 79.5323 90.525 79.0514C90.1833 78.5706 90.0903 77.9524 90.2751 77.39L96.7501 57.6882H82.5494Z" fill="#007AFF"/>
<path d="M88.3636 89.0377H73.8182L81.0909 55.8441H99.2727L92 77.9732H110.182L88.3636 111.167V89.0377Z" fill="#007AFF"/>
</svg>
